<?xml version="1.0" encoding="UTF-8" standalone="no"?>
<!-- Created with Inkscape (http://www.inkscape.org/) -->

<svg
   xmlns:dc="http://purl.org/dc/elements/1.1/"
   xmlns:cc="http://creativecommons.org/ns#"
   xmlns:rdf="http://www.w3.org/1999/02/22-rdf-syntax-ns#"
   xmlns:svg="http://www.w3.org/2000/svg"
   xmlns="http://www.w3.org/2000/svg"
   xmlns:sodipodi="http://sodipodi.sourceforge.net/DTD/sodipodi-0.dtd"
   xmlns:inkscape="http://www.inkscape.org/namespaces/inkscape"
   width="1233.462mm"
   height="1233.462mm"
   viewBox="0 0 1233.462 1233.462"
   version="1.1"
   id="svg8"
   inkscape:version="0.92.4 (5da689c313, 2019-01-14)"
   sodipodi:docname="Ontario_Wa-19.svg">
  <defs
     id="defs2" />
  <sodipodi:namedview
     id="base"
     pagecolor="#ffffff"
     bordercolor="#666666"
     borderopacity="1.0"
     inkscape:pageopacity="0.0"
     inkscape:pageshadow="2"
     inkscape:zoom="0.12374369"
     inkscape:cx="4250.0729"
     inkscape:cy="2105.0862"
     inkscape:document-units="mm"
     inkscape:current-layer="layer1"
     showgrid="false"
     inkscape:window-width="1920"
     inkscape:window-height="1057"
     inkscape:window-x="-8"
     inkscape:window-y="-8"
     inkscape:window-maximized="1"
     showborder="true"
     inkscape:snap-global="false"
     showguides="false" />
  <metadata
     id="metadata5">
    <rdf:RDF>
      <cc:Work
         rdf:about="">
        <dc:format>image/svg+xml</dc:format>
        <dc:type
           rdf:resource="http://purl.org/dc/dcmitype/StillImage" />
        <dc:title></dc:title>
      </cc:Work>
    </rdf:RDF>
  </metadata>
  <g
     inkscape:label="Layer 1"
     inkscape:groupmode="layer"
     id="layer1"
     transform="translate(0,936.46167)">
    <rect
       style="opacity:1;fill:#fad214;fill-opacity:1;fill-rule:nonzero;stroke:none;stroke-width:13.89606285;stroke-linecap:round;stroke-linejoin:round;stroke-miterlimit:4;stroke-dasharray:none;stroke-opacity:1"
       id="rect1383"
       width="900"
       height="900"
       x="212.1783"
       y="-239.98907"
       rx="50"
       ry="50"
       transform="rotate(-45)" />
    <rect
       ry="30"
       rx="30"
       y="-219.98907"
       x="232.17838"
       height="860"
       width="860"
       id="rect1396"
       style="opacity:1;fill:#000000;fill-opacity:1;fill-rule:nonzero;stroke:none;stroke-width:13.2784586;stroke-linecap:round;stroke-linejoin:round;stroke-miterlimit:4;stroke-dasharray:none;stroke-opacity:1"
       transform="rotate(-45)" />
    <rect
       ry="10"
       rx="10"
       y="-199.98909"
       x="252.17838"
       height="820"
       width="820"
       id="rect1398"
       style="opacity:1;fill:#fad214;fill-opacity:1;fill-rule:nonzero;stroke:none;stroke-width:12.66085625;stroke-linecap:round;stroke-linejoin:round;stroke-miterlimit:4;stroke-dasharray:none;stroke-opacity:1"
       transform="rotate(-45)" />
    <path
       style="fill:#000000;fill-opacity:1;fill-rule:nonzero;stroke:none;stroke-width:3.56207252"
       d="m 712.06019,-653.99968 -273.7613,144.46768 22.3083,42.38841 -65.928,34.79286 10.1503,76.97571 c -14.2935,12.90222 -42.8785,12.53874 -34.1002,38.93417 l 24.7432,47.02166 -10.3193,5.44381 11.1246,21.25795 42.3434,-22.34687 c 7.5223,11.48811 19.7808,18.49596 32.7542,19.81101 l -171.8594,91.25361 h 634.42963 v -336.1324 l -176.04923,93.66798 c 6.7899,-12.65533 7.2472,-28.26547 0.071,-41.90327 -3.6195,-6.87721 -8.3899,-11.69839 -14.4376,-15.69507 l 57.72017,-30.46733 z m -253.7628,204.61758 27.1941,51.66736 -63.133,33.31417 -12.8519,-59.23314 z m 215.1922,32.27431 c 0.1536,6.68565 2.0406,14.17693 5.359,20.49244 7.2093,13.68656 20.3166,22.13586 34.6344,23.64016 l -198.436,104.67469 c 6.2703,-11.50547 7.3679,-25.4618 2.1014,-38.20045 l 25.0822,-13.23805 -11.5718,-21.99128 z"
       id="path474"
       inkscape:connector-curvature="0" />
    <circle
       style="opacity:1;fill:#000000;fill-opacity:1;fill-rule:nonzero;stroke:none;stroke-width:9.74570274;stroke-linecap:square;stroke-linejoin:round;stroke-miterlimit:4;stroke-dasharray:none;stroke-opacity:1"
       id="path569"
       cx="734.73102"
       cy="16.000328"
       r="28" />
    <circle
       r="16.5"
       cy="16.000328"
       cx="734.73102"
       id="circle580"
       style="opacity:1;fill:#fad214;fill-opacity:1;fill-rule:nonzero;stroke:none;stroke-width:5.74300337;stroke-linecap:square;stroke-linejoin:round;stroke-miterlimit:4;stroke-dasharray:none;stroke-opacity:1" />
    <path
       sodipodi:nodetypes="ccccc"
       d="m 723.73099,-73.999743 h 9 l -66,119.999985 h -9 z"
       style="fill:#000000;fill-opacity:1;fill-rule:nonzero;stroke:none;stroke-width:3.37763119"
       id="path595"
       inkscape:connector-curvature="0" />
    <circle
       r="28"
       cy="-43.999737"
       cx="655.73102"
       id="circle606"
       style="opacity:1;fill:#000000;fill-opacity:1;fill-rule:nonzero;stroke:none;stroke-width:9.74570274;stroke-linecap:square;stroke-linejoin:round;stroke-miterlimit:4;stroke-dasharray:none;stroke-opacity:1" />
    <circle
       style="opacity:1;fill:#fad214;fill-opacity:1;fill-rule:nonzero;stroke:none;stroke-width:5.74300337;stroke-linecap:square;stroke-linejoin:round;stroke-miterlimit:4;stroke-dasharray:none;stroke-opacity:1"
       id="circle608"
       cx="655.73102"
       cy="-43.999737"
       r="16.5" />
    <g
       aria-label="18"
       style="font-style:normal;font-variant:normal;font-weight:normal;font-stretch:normal;font-size:172.91065979px;line-height:1.25;font-family:'Roadgeek 2005 Series D';-inkscape-font-specification:'Roadgeek 2005 Series D';letter-spacing:0px;word-spacing:0px;fill:#ff0000;fill-opacity:1;stroke:none;stroke-width:4.3227663"
       id="text654"
       transform="translate(470.73099,-250.99998)">
      <path
         d="M 10.54755,294.92535 V 201.03487 H -1.0681152e-7 V 186.33746 H 1.2103745 q 3.6311239,0 7.2622477,-1.90202 3.6311238,-1.90201 6.0518728,-5.36023 h 14.697406 v 115.85014 z"
         style="font-style:normal;font-variant:normal;font-weight:normal;font-stretch:normal;font-family:'Roadgeek 2005 Series D';-inkscape-font-specification:'Roadgeek 2005 Series D';fill:#000000;stroke:none;stroke-width:4.3227663"
         id="path678"
         inkscape:connector-curvature="0" />
      <path
         d="m 133.21956,257.92247 q 0,7.95389 -3.2853,15.04323 -3.11239,7.08934 -8.64554,12.44957 -5.36023,5.36023 -12.44956,8.47262 -7.08934,3.11239 -15.04323,3.11239 -7.953891,0 -15.043228,-3.11239 -7.089337,-3.11239 -12.622478,-8.47262 -5.360231,-5.36023 -8.645533,-12.44957 -3.112392,-7.08934 -3.112392,-15.04323 0,-8.29971 3.458213,-14.87031 3.458213,-6.74352 9.855908,-11.93084 -8.472622,-8.99135 -8.472622,-21.0951 0,-6.74352 2.76657,-12.62248 2.766571,-6.05187 7.435158,-10.54755 4.841499,-4.66859 11.066283,-7.26225 6.224783,-2.59366 13.314121,-2.59366 6.91643,0 13.31412,2.59366 6.39769,2.59366 11.06628,7.26225 4.8415,4.49568 7.60807,10.54755 2.93948,5.87896 2.93948,12.62248 0,6.05187 -2.42075,11.4121 -2.24784,5.18732 -6.5706,9.683 6.74351,5.18732 10.02882,12.10375 3.45821,6.74351 3.45821,14.6974 z m -23.17003,-48.41498 q 0,-5.70605 -4.8415,-9.683 -4.66858,-4.14985 -11.4121,-4.14985 -6.743516,0 -11.585015,4.14985 -4.668588,3.97695 -4.668588,9.683 0,5.18732 4.668588,8.99135 4.841499,3.63113 11.585015,3.63113 6.74352,0 11.4121,-3.63113 4.8415,-3.80403 4.8415,-8.99135 z m 4.8415,48.7608 q 0,-3.63112 -1.72911,-6.74351 -1.7291,-3.2853 -4.66858,-5.53314 -2.76657,-2.42075 -6.57061,-3.80404 -3.804034,-1.38328 -8.1268,-1.38328 -4.322767,0 -8.126801,1.38328 -3.631124,1.38329 -6.570606,3.80404 -2.76657,2.24784 -4.495677,5.53314 -1.556196,3.11239 -1.556196,6.74351 0,4.14986 1.556196,7.78098 1.729107,3.63113 4.495677,6.3977 2.939482,2.76657 6.570606,4.32276 3.804034,1.5562 8.126801,1.5562 4.322766,0 8.1268,-1.5562 3.97695,-1.55619 6.74352,-4.32276 2.93948,-2.76657 4.49567,-6.3977 1.72911,-3.63112 1.72911,-7.78098 z"
         style="font-style:normal;font-variant:normal;font-weight:normal;font-stretch:normal;font-family:'Roadgeek 2005 Series D';-inkscape-font-specification:'Roadgeek 2005 Series D';fill:#000000;stroke:none;stroke-width:4.3227663"
         id="path680"
         inkscape:connector-curvature="0" />
    </g>
  </g>
</svg>
